<?xml version="1.0" encoding="UTF-8"?><svg id="Layer_1" xmlns="http://www.w3.org/2000/svg" viewBox="0 0 1280 1024"><defs><style>.cls-1{stroke:#000;stroke-miterlimit:10;stroke-width:3px;}.cls-1,.cls-2{fill:#fff;}</style></defs><polygon class="cls-2" points="298.37 578.41 478.42 309.4 831.94 309.4 1011.99 578.41 298.37 578.41"/><path d="M831.14,310.9l178.04,266.01H301.18s178.04-266.01,178.04-266.01h351.92M832.74,307.9h-355.13l-182.05,272.01h719.23s-182.05-272.01-182.05-272.01h0Z"/><polygon class="cls-2" points="309.04 839.99 292.3 643.99 1018.14 644.89 1000.92 840.85 309.04 839.99"/><path d="M293.94,645.49l722.57.9-16.96,192.96-689.13-.86-16.48-193M290.67,642.49l16.99,199,694.63.87,17.49-198.96-729.11-.91h0Z"/><rect class="cls-1" x="477.62" y="216.87" width="355.33" height="91.03"/><path class="cls-1" d="M429.51,345.47c8.6-7.04,21.35-21.21,38.43-23.11s56.94,3.57,67.89,4.35c10.94.78,69.57-3.25,94.59-4.75s89.11-1.62,109.44,0c20.32,1.62,68.01,7.09,78.95,5.53s38.3,1.89,46.12,5.64,155.38,215.21,154.86,221.45c-.52,6.24,19.45,37.44,13.21,74.89s-19.97,42.44-53.67,44.93-71.14-21.22-89.87-14.98c-18.72,6.24-152.27,16.6-217.18,15.16-64.9-1.43-71.14-16.41-86.12-15.16-14.98,1.25-16.23,1.25-43.69,8.74-27.46,7.49-152.27,18.11-194.71,6.56s-109.84,49.61-88.62-57.73c21.22-107.34,170.37-271.52,170.37-271.52Z"/><path class="cls-1" d="M503.29,233.57c8.8.61,30.22,2.38,38.48,5.94,8.26,3.56,38.84-4.75,44.5-4.58,5.66.17,26.24-6.01,45.76-4.61,19.52,1.39,14.7,9.68,15,21.61.3,11.93-1.61,14.49,1.23,25.73,2.84,11.24,5.69,24.36-7.55,22.81-13.24-1.55-25.6,6.38-37.53,6.68-11.93.3-66.63-.91-77.31-.64-10.68.27-33.03,10.89-28.03-15,5-25.89,4.92-29.03,2.14-39.64-2.78-10.61-4.86-18.87,3.31-18.31Z"/><path class="cls-1" d="M669.93,229.04c8.74,1.18,30,4.36,38.01,8.46s39.07-2.19,44.7-1.65,26.58-4.27,45.96-1.59c19.38,2.67,14.03,10.63,13.55,22.55s-2.56,14.36-.46,25.76,4.07,24.68-9.03,22.27-25.97,4.69-37.89,4.2-66.43-5.29-77.1-5.72-33.67,8.69-26.98-16.81c6.69-25.51,6.82-28.64,4.74-39.42-2.08-10.77-3.61-19.15,4.5-18.05Z"/></svg>